<?xml version="1.0" encoding="UTF-8" standalone="no"?>
<!DOCTYPE svg PUBLIC "-//W3C//DTD SVG 1.1//EN" "http://www.w3.org/Graphics/SVG/1.1/DTD/svg11.dtd">
<svg version="1.1" xmlns="http://www.w3.org/2000/svg" xmlns:xlink="http://www.w3.org/1999/xlink" preserveAspectRatio="xMidYMid meet" viewBox="0 0 50 50" width="50" height="50"><defs><path d="M28.9 4.59L28.94 4.59L28.98 4.6L29.02 4.61L29.05 4.62L29.09 4.63L29.12 4.65L29.15 4.66L29.19 4.68L29.22 4.7L29.25 4.72L29.28 4.75L29.31 4.77L29.33 4.8L29.36 4.83L29.39 4.86L29.41 4.89L29.43 4.92L29.46 4.96L29.48 4.99L29.5 5.03L29.53 5.07L29.55 5.1L29.57 5.14L29.59 5.19L29.61 5.23L29.63 5.27L29.65 5.32L29.67 5.36L29.69 5.41L29.7 5.45L29.72 5.5L29.74 5.55L29.76 5.6L29.78 5.65L29.79 5.7L29.81 5.75L29.83 5.81L29.85 5.86L30.73 9.17L31.01 9.26L31.63 9.47L32.23 9.71L32.82 9.98L33.4 10.26L33.45 10.29L36.44 8.56L36.49 8.54L36.54 8.52L36.59 8.49L36.63 8.47L36.68 8.44L36.73 8.42L36.78 8.4L36.82 8.38L36.87 8.36L36.92 8.34L36.96 8.32L37.01 8.3L37.05 8.29L37.1 8.27L37.14 8.25L37.18 8.24L37.23 8.23L37.27 8.22L37.31 8.21L37.35 8.2L37.39 8.19L37.43 8.19L37.47 8.18L37.51 8.18L37.55 8.18L37.59 8.18L37.63 8.18L37.67 8.18L37.7 8.19L37.74 8.2L37.78 8.21L37.81 8.22L37.85 8.23L37.88 8.25L37.91 8.26L37.95 8.28L37.98 8.31L38.01 8.33L38.04 8.36L38.07 8.38L42.42 12.72L42.45 12.75L42.48 12.78L42.5 12.81L42.52 12.84L42.54 12.87L42.56 12.91L42.58 12.94L42.59 12.98L42.6 13.01L42.62 13.05L42.62 13.09L42.63 13.13L42.64 13.16L42.64 13.2L42.64 13.24L42.64 13.28L42.64 13.32L42.64 13.36L42.63 13.41L42.62 13.45L42.62 13.49L42.61 13.53L42.6 13.57L42.58 13.62L42.57 13.66L42.56 13.71L42.54 13.75L42.52 13.79L42.51 13.84L42.49 13.88L42.47 13.93L42.44 13.97L42.42 14.02L42.4 14.06L42.37 14.11L42.35 14.16L42.32 14.2L42.3 14.25L42.27 14.29L42.24 14.34L40.51 17.31L40.55 17.38L40.83 17.95L41.1 18.54L41.34 19.14L41.56 19.76L41.64 20.03L44.97 20.92L45.02 20.93L45.08 20.94L45.13 20.96L45.18 20.97L45.23 20.98L45.28 21L45.33 21.01L45.38 21.03L45.42 21.05L45.47 21.07L45.51 21.08L45.56 21.1L45.6 21.12L45.65 21.14L45.69 21.16L45.73 21.18L45.77 21.21L45.8 21.23L45.84 21.25L45.88 21.28L45.91 21.3L45.94 21.33L45.98 21.35L46 21.38L46.03 21.41L46.06 21.44L46.09 21.47L46.11 21.5L46.13 21.53L46.15 21.56L46.17 21.6L46.19 21.63L46.2 21.67L46.22 21.7L46.23 21.74L46.24 21.78L46.24 21.81L46.25 21.85L46.25 21.9L46.25 21.94L46.25 28.06L46.25 28.1L46.25 28.14L46.24 28.18L46.24 28.22L46.23 28.26L46.22 28.29L46.2 28.33L46.19 28.36L46.17 28.4L46.15 28.43L46.13 28.46L46.11 28.49L46.09 28.52L46.06 28.55L46.03 28.57L46 28.6L45.98 28.63L45.94 28.65L45.91 28.67L45.88 28.7L45.84 28.72L45.8 28.74L45.77 28.77L45.73 28.79L45.69 28.81L45.65 28.83L45.6 28.85L45.56 28.87L45.51 28.89L45.47 28.91L45.42 28.93L45.38 28.94L45.33 28.96L45.28 28.98L45.23 29L45.18 29.01L45.13 29.03L45.08 29.05L45.02 29.07L44.97 29.08L41.64 29.97L41.56 30.24L41.34 30.86L41.1 31.46L40.83 32.05L40.55 32.62L40.51 32.68L42.24 35.65L42.27 35.69L42.3 35.74L42.32 35.79L42.35 35.83L42.37 35.88L42.4 35.92L42.42 35.97L42.44 36.01L42.47 36.06L42.49 36.1L42.51 36.15L42.52 36.19L42.54 36.24L42.56 36.28L42.57 36.33L42.58 36.37L42.6 36.41L42.61 36.46L42.62 36.5L42.62 36.54L42.63 36.58L42.64 36.62L42.64 36.66L42.64 36.71L42.64 36.74L42.64 36.78L42.64 36.82L42.63 36.86L42.62 36.9L42.62 36.94L42.6 36.97L42.59 37.01L42.58 37.04L42.56 37.08L42.54 37.11L42.52 37.15L42.5 37.18L42.48 37.21L42.45 37.24L42.42 37.27L38.07 41.6L38.04 41.63L38.01 41.66L37.98 41.68L37.95 41.7L37.91 41.72L37.88 41.74L37.85 41.76L37.81 41.77L37.78 41.78L37.74 41.79L37.7 41.8L37.67 41.8L37.63 41.81L37.59 41.81L37.55 41.81L37.51 41.81L37.47 41.81L37.43 41.8L37.39 41.8L37.35 41.79L37.31 41.78L37.27 41.77L37.23 41.76L37.18 41.75L37.14 41.73L37.1 41.72L37.05 41.7L37.01 41.69L36.96 41.67L36.92 41.65L36.87 41.63L36.82 41.61L36.78 41.59L36.73 41.57L36.68 41.54L36.63 41.52L36.59 41.5L36.54 41.47L36.49 41.45L36.44 41.42L33.46 39.71L33.4 39.74L32.82 40.02L32.23 40.29L31.63 40.53L31.01 40.74L30.73 40.83L29.85 44.14L29.83 44.19L29.81 44.25L29.79 44.3L29.78 44.35L29.76 44.4L29.74 44.45L29.72 44.5L29.7 44.55L29.69 44.59L29.67 44.64L29.65 44.68L29.63 44.73L29.61 44.77L29.59 44.81L29.57 44.86L29.55 44.9L29.53 44.93L29.5 44.97L29.48 45.01L29.46 45.04L29.43 45.08L29.41 45.11L29.39 45.14L29.36 45.17L29.33 45.2L29.31 45.23L29.28 45.25L29.25 45.28L29.22 45.3L29.19 45.32L29.15 45.34L29.12 45.35L29.09 45.37L29.05 45.38L29.02 45.39L28.98 45.4L28.94 45.41L28.9 45.41L28.86 45.42L28.82 45.42L22.67 45.42L22.63 45.42L22.58 45.41L22.54 45.41L22.51 45.4L22.47 45.39L22.43 45.38L22.39 45.37L22.36 45.35L22.32 45.34L22.29 45.32L22.26 45.3L22.23 45.28L22.2 45.25L22.17 45.23L22.14 45.2L22.11 45.17L22.08 45.14L22.06 45.11L22.03 45.08L22 45.04L21.98 45.01L21.96 44.97L21.93 44.93L21.91 44.9L21.89 44.86L21.87 44.81L21.85 44.77L21.83 44.73L21.81 44.68L21.79 44.64L21.77 44.59L21.76 44.55L21.74 44.5L21.73 44.45L21.71 44.4L21.7 44.35L21.68 44.3L21.67 44.25L21.65 44.19L21.64 44.14L20.76 40.83L20.48 40.74L19.86 40.53L19.26 40.29L18.67 40.02L18.09 39.74L18.02 39.7L15.05 41.41L15 41.44L14.96 41.47L14.91 41.49L14.86 41.52L14.82 41.54L14.77 41.57L14.73 41.59L14.68 41.61L14.64 41.64L14.59 41.66L14.54 41.68L14.5 41.69L14.46 41.71L14.41 41.73L14.37 41.74L14.32 41.75L14.28 41.77L14.24 41.78L14.19 41.79L14.15 41.79L14.11 41.8L14.07 41.81L14.03 41.81L13.99 41.81L13.95 41.81L13.91 41.81L13.87 41.81L13.83 41.8L13.79 41.79L13.75 41.79L13.72 41.77L13.68 41.76L13.65 41.75L13.61 41.73L13.58 41.71L13.54 41.69L13.51 41.67L13.48 41.65L13.45 41.62L13.42 41.59L9.07 37.26L9.04 37.23L9.01 37.2L8.99 37.17L8.97 37.14L8.95 37.1L8.93 37.07L8.91 37.04L8.9 37L8.89 36.97L8.88 36.93L8.87 36.89L8.87 36.86L8.86 36.82L8.86 36.78L8.86 36.74L8.86 36.71L8.86 36.67L8.87 36.63L8.87 36.59L8.88 36.55L8.89 36.5L8.9 36.46L8.91 36.42L8.92 36.38L8.94 36.33L8.95 36.29L8.97 36.25L8.98 36.2L9 36.16L9.02 36.11L9.04 36.07L9.06 36.02L9.08 35.97L9.1 35.93L9.13 35.88L9.15 35.83L9.17 35.78L9.2 35.73L9.22 35.69L9.25 35.64L10.97 32.68L10.94 32.62L10.65 32.05L10.39 31.46L10.15 30.86L9.93 30.24L9.84 29.97L6.52 29.08L6.46 29.07L6.41 29.05L6.36 29.03L6.31 29.01L6.26 29L6.21 28.98L6.16 28.96L6.11 28.94L6.06 28.93L6.02 28.91L5.97 28.89L5.93 28.87L5.88 28.85L5.84 28.83L5.8 28.81L5.76 28.79L5.72 28.77L5.68 28.74L5.65 28.72L5.61 28.7L5.58 28.67L5.54 28.65L5.51 28.63L5.48 28.6L5.45 28.57L5.43 28.55L5.4 28.52L5.38 28.49L5.36 28.46L5.34 28.43L5.32 28.4L5.3 28.36L5.29 28.33L5.27 28.29L5.26 28.26L5.25 28.22L5.24 28.18L5.24 28.14L5.24 28.1L5.24 28.06L5.24 21.94L5.24 21.9L5.24 21.85L5.24 21.81L5.25 21.78L5.26 21.74L5.27 21.7L5.29 21.67L5.3 21.63L5.32 21.6L5.34 21.56L5.36 21.53L5.38 21.5L5.4 21.47L5.43 21.44L5.45 21.41L5.48 21.38L5.51 21.35L5.54 21.33L5.58 21.3L5.61 21.28L5.65 21.25L5.68 21.23L5.72 21.21L5.76 21.18L5.8 21.16L5.84 21.14L5.88 21.12L5.93 21.1L5.97 21.08L6.02 21.07L6.06 21.05L6.11 21.03L6.16 21.01L6.21 21L6.26 20.98L6.31 20.97L6.36 20.96L6.41 20.94L6.46 20.93L6.52 20.92L9.84 20.03L9.93 19.76L10.15 19.14L10.39 18.54L10.65 17.95L10.94 17.38L10.97 17.32L9.25 14.35L9.22 14.3L9.2 14.25L9.17 14.21L9.15 14.16L9.13 14.11L9.1 14.06L9.08 14.01L9.06 13.97L9.04 13.92L9.02 13.88L9 13.83L8.98 13.79L8.97 13.74L8.95 13.7L8.94 13.65L8.92 13.61L8.91 13.57L8.9 13.53L8.89 13.48L8.88 13.44L8.87 13.4L8.87 13.36L8.86 13.32L8.86 13.28L8.86 13.24L8.86 13.2L8.86 13.17L8.87 13.13L8.87 13.09L8.88 13.06L8.89 13.02L8.9 12.99L8.91 12.95L8.93 12.92L8.95 12.88L8.97 12.85L8.99 12.82L9.01 12.79L9.04 12.76L9.07 12.73L13.42 8.4L13.45 8.37L13.48 8.34L13.51 8.32L13.54 8.29L13.58 8.27L13.61 8.26L13.65 8.24L13.68 8.23L13.72 8.21L13.75 8.2L13.79 8.19L13.83 8.19L13.87 8.18L13.91 8.18L13.95 8.18L13.99 8.18L14.03 8.18L14.07 8.18L14.11 8.19L14.15 8.19L14.19 8.2L14.24 8.21L14.28 8.22L14.32 8.23L14.37 8.25L14.41 8.26L14.46 8.28L14.5 8.29L14.54 8.31L14.59 8.33L14.64 8.35L14.68 8.37L14.73 8.4L14.77 8.42L14.82 8.44L14.86 8.47L14.91 8.49L14.96 8.52L15 8.55L15.05 8.58L18.03 10.29L18.09 10.26L18.67 9.98L19.26 9.71L19.86 9.47L20.48 9.26L20.76 9.17L21.64 5.86L21.65 5.81L21.67 5.75L21.68 5.7L21.7 5.65L21.71 5.6L21.73 5.55L21.74 5.5L21.76 5.45L21.77 5.41L21.79 5.36L21.81 5.32L21.83 5.27L21.85 5.23L21.87 5.19L21.89 5.14L21.91 5.1L21.93 5.07L21.96 5.03L21.98 4.99L22 4.96L22.03 4.92L22.06 4.89L22.08 4.86L22.11 4.83L22.14 4.8L22.17 4.77L22.2 4.75L22.23 4.72L22.26 4.7L22.29 4.68L22.32 4.66L22.36 4.65L22.39 4.63L22.43 4.62L22.47 4.61L22.51 4.6L22.54 4.59L22.58 4.59L22.63 4.58L22.67 4.58L28.82 4.58L28.86 4.58L28.9 4.59ZM25.01 16.1L24.65 16.13L24.29 16.18L23.94 16.25L23.59 16.33L23.24 16.42L22.91 16.52L22.58 16.64L22.25 16.77L21.93 16.91L21.62 17.06L21.32 17.23L21.02 17.41L20.73 17.59L20.44 17.79L20.17 18L19.9 18.22L19.65 18.45L19.4 18.68L19.16 18.93L18.93 19.19L18.71 19.45L18.5 19.72L18.3 20.01L18.12 20.29L17.94 20.59L17.77 20.89L17.62 21.21L17.48 21.52L17.35 21.85L17.23 22.18L17.12 22.51L17.03 22.85L16.95 23.2L16.89 23.55L16.84 23.91L16.8 24.27L16.78 24.63L16.77 25L16.78 25.37L16.8 25.73L16.84 26.09L16.89 26.45L16.95 26.8L17.03 27.15L17.12 27.49L17.23 27.82L17.35 28.15L17.48 28.48L17.62 28.79L17.77 29.11L17.94 29.41L18.12 29.71L18.3 29.99L18.5 30.28L18.71 30.55L18.93 30.81L19.16 31.07L19.4 31.32L19.65 31.55L19.9 31.78L20.17 32L20.44 32.21L20.73 32.41L21.02 32.59L21.32 32.77L21.62 32.94L21.93 33.09L22.25 33.23L22.58 33.36L22.91 33.48L23.24 33.58L23.59 33.67L23.94 33.75L24.29 33.82L24.65 33.87L25.01 33.9L25.37 33.93L25.74 33.93L26.11 33.93L26.48 33.9L26.84 33.87L27.2 33.82L27.55 33.75L27.9 33.67L28.24 33.58L28.58 33.48L28.91 33.36L29.24 33.23L29.56 33.09L29.87 32.94L30.17 32.77L30.47 32.59L30.76 32.41L31.04 32.21L31.32 32L31.58 31.78L31.84 31.55L32.09 31.32L32.33 31.07L32.56 30.81L32.78 30.55L32.99 30.28L33.18 29.99L33.37 29.71L33.55 29.41L33.71 29.11L33.87 28.79L34.01 28.48L34.14 28.15L34.26 27.82L34.36 27.49L34.46 27.15L34.53 26.8L34.6 26.45L34.65 26.09L34.69 25.73L34.71 25.37L34.72 25L34.71 24.63L34.69 24.27L34.65 23.91L34.6 23.55L34.53 23.2L34.46 22.85L34.36 22.51L34.26 22.18L34.14 21.85L34.01 21.52L33.87 21.21L33.71 20.89L33.55 20.59L33.37 20.29L33.18 20.01L32.99 19.72L32.78 19.45L32.56 19.19L32.33 18.93L32.09 18.68L31.84 18.45L31.58 18.22L31.32 18L31.04 17.79L30.76 17.59L30.47 17.41L30.17 17.23L29.87 17.06L29.56 16.91L29.24 16.77L28.91 16.64L28.58 16.52L28.24 16.42L27.9 16.33L27.55 16.25L27.2 16.18L26.84 16.13L26.48 16.1L26.11 16.07L25.74 16.07L25.37 16.07L25.01 16.1Z" id="f3BzSLoJCH"></path><path d="M43.24 25C43.24 34.66 35.4 42.5 25.74 42.5C16.09 42.5 8.24 34.66 8.24 25C8.24 15.34 16.09 7.5 25.74 7.5C35.4 7.5 43.24 15.34 43.24 25Z" id="bmjzvTpQO"></path><path d="M25.52 29.55L25.52 29.55L22.18 33.13L16.01 26.5L19.34 22.92L22.18 25.97L30.66 16.87L33.99 20.45L25.52 29.55Z" id="a1kZmAR8Ls"></path></defs><g><g><g><use xlink:href="#f3BzSLoJCH" opacity="1" fill="#03592f" fill-opacity="1"></use></g><g><use xlink:href="#bmjzvTpQO" opacity="1" fill="#087843" fill-opacity="1"></use></g><g><use xlink:href="#a1kZmAR8Ls" opacity="1" fill="#ffffff" fill-opacity="1"></use></g></g></g></svg>